<svg width="1438" height="747" viewBox="0 0 1438 747" fill="none" xmlns="http://www.w3.org/2000/svg">
<g clip-path="url(#clip0_98_31)">
<mask id="mask0_98_31" style="mask-type:alpha" maskUnits="userSpaceOnUse" x="0" y="-4" width="1440" height="751">
<path d="M6.10352e-05 -3.99963H1440V660.326C970.5 682.355 672 843.823 6.10508e-05 660.326L6.10352e-05 -3.99963Z" fill="#F8F2FF"/>
</mask>
<g mask="url(#mask0_98_31)">
<g filter="url(#filter0_f_98_31)">
<path d="M1334.17 149.583C1594.75 149.583 1805.99 399.546 1806 707.892C1806 1016.24 1594.75 1266.2 1334.17 1266.2C1073.59 1266.2 862.345 1016.24 862.345 707.892C862.345 399.546 1073.59 149.583 1334.17 149.583Z" fill="#C1BCFF"/>
<path d="M259.825 20.276C520.407 20.276 731.65 270.24 731.65 578.585C731.65 886.931 520.407 1136.89 259.825 1136.89C-0.756744 1136.89 -212 886.931 -212 578.585C-212 270.24 -0.756832 20.276 259.825 20.276Z" fill="#C1BCFF"/>
<path d="M201.01 119.159C403.845 119.159 568.276 313.613 568.276 553.484C568.276 793.355 403.845 987.809 201.01 987.809C-1.82539 987.809 -166.256 793.355 -166.256 553.484C-166.256 313.613 -1.82546 119.159 201.01 119.159Z" fill="#FFD9DD"/>
<path d="M700.283 128.286C903.118 128.286 1067.55 322.74 1067.55 562.611C1067.55 802.482 903.118 996.936 700.283 996.936C497.448 996.936 333.017 802.482 333.017 562.611C333.017 322.74 497.448 128.286 700.283 128.286Z" fill="#DEB5FF"/>
<path opacity="0.5" d="M953.591 88.9809C1138.38 88.9809 1288.18 266.067 1288.18 484.513C1288.18 702.959 1138.38 880.045 953.591 880.045C768.801 880.045 619 702.959 619 484.513C619 266.067 768.801 88.9809 953.591 88.9809Z" fill="#C173FF"/>
<path d="M1499.13 175.962C1723.98 175.962 1906.26 391.53 1906.26 657.447C1906.26 923.364 1723.98 1138.93 1499.13 1138.93C1274.28 1138.93 1092 923.364 1092 657.447C1092 391.53 1274.28 175.962 1499.13 175.962Z" fill="#D9B8FF"/>
<path d="M241.527 421.893C308.658 421.893 363.078 465.143 363.078 518.494C363.078 571.845 308.658 615.095 241.527 615.095C174.396 615.095 119.976 571.845 119.976 518.494C119.976 465.143 174.396 421.893 241.527 421.893Z" fill="#FFDA58"/>
<path d="M241.527 458.403C308.658 458.403 363.078 501.653 363.078 555.004C363.078 608.355 308.658 651.605 241.527 651.605C174.396 651.605 119.976 608.355 119.976 555.004C119.976 501.653 174.396 458.403 241.527 458.403Z" fill="#FFDD65"/>
<path opacity="0.5" d="M210.591 -23.9961C395.38 -23.9961 545.182 153.09 545.182 371.536C545.182 589.982 395.38 767.068 210.591 767.068C25.8015 767.068 -124 589.982 -124 371.536C-124 153.09 25.8014 -23.9961 210.591 -23.9961Z" fill="#C173FF"/>
</g>
</g>
</g>
<defs>
<filter id="filter0_f_98_31" x="-495.59" y="-307.586" width="2685.44" height="1857.38" filterUnits="userSpaceOnUse" color-interpolation-filters="sRGB">
<feFlood flood-opacity="0" result="BackgroundImageFix"/>
<feBlend mode="normal" in="SourceGraphic" in2="BackgroundImageFix" result="shape"/>
<feGaussianBlur stdDeviation="141.795" result="effect1_foregroundBlur_98_31"/>
</filter>
<clipPath id="clip0_98_31">
<rect width="1439" height="748" fill="white" transform="translate(0 -1)"/>
</clipPath>
</defs>
</svg>
