<svg width="900" height="866" viewBox="0 0 900 866" fill="none" xmlns="http://www.w3.org/2000/svg">
<g clip-path="url(#clip0_228_805)">
<path d="M762.412 214.748C762.916 212.779 763.518 210.837 764.217 208.929C764.516 207.812 765.16 206.858 765.623 205.785C766.322 204.148 767.103 202.548 767.964 200.99C768.517 199.976 769.161 199.022 769.83 197.969C770.499 196.916 771.658 195.219 772.679 193.908L774.925 191.306C776.077 190.03 777.285 188.805 778.542 187.663C779.799 186.52 780.351 186.035 781.297 185.267C782.242 184.499 783.009 184 783.877 183.388C785.508 182.276 787.203 181.261 788.953 180.347V180.347L45.9747 568.679C44.826 569.286 43.7013 569.936 42.6007 570.627C42.0088 570.996 41.4978 571.458 40.897 571.86C40.2962 572.263 39.1604 573.085 38.3162 573.739C37.4719 574.393 37.3645 574.4 36.9128 574.771C36.461 575.143 36.031 575.697 35.5616 576.135C34.2961 577.31 33.0963 578.502 31.9358 579.811C31.4993 580.257 31.0059 580.653 30.5935 581.141C30.181 581.629 30.0097 582.006 29.6893 582.413C28.6778 583.691 27.7473 585.062 26.8496 586.441C25.9519 587.82 25.5547 588.382 24.9838 589.462C24.126 591.009 23.3476 592.598 22.6515 594.224C22.1639 595.255 21.6851 596.254 21.2456 597.368C20.5425 599.287 19.9369 601.24 19.4311 603.22C19.1847 604.14 18.9382 605.06 18.6917 605.98C17.9896 609.017 17.5158 612.104 17.2742 615.212V615.212C17.0469 618.255 16.9928 621.309 17.1121 624.359L17.2029 625.334C17.2087 625.969 17.3307 626.565 17.3782 627.176C17.5382 628.944 17.7134 630.787 17.9744 632.442L18.1069 633.392C18.2024 634.087 18.4141 634.742 18.5426 635.446C18.7929 636.745 19.0521 638.012 19.4034 639.197L19.6626 640.464L20.2585 642.314L21.3388 645.772C21.5048 646.204 21.5962 646.651 21.7534 647.116L22.4678 648.786L23.8462 652.183C24.0779 652.633 24.2263 653.13 24.4579 653.58L25.1682 655.002C25.7583 656.217 26.3988 657.374 27.0306 658.565L27.8218 660.079L28.4406 661.055C29.3721 662.572 30.3452 664.065 31.3272 665.526C31.6662 665.968 31.9219 666.46 32.261 666.903C32.3551 667.044 32.4604 667.179 32.576 667.304C34.2647 669.646 36.101 671.879 38.0735 673.988L38.5175 674.565C39.0601 675.168 39.662 675.681 40.2462 676.26C40.8305 676.839 41.6247 677.686 42.3228 678.366C43.0208 679.046 44.0298 679.88 44.925 680.612C45.8201 681.345 46.3715 681.915 47.1288 682.506C47.8862 683.096 48.9784 683.882 50.0883 684.601C51.1982 685.321 51.6205 685.716 52.3955 686.241C53.1704 686.765 54.3964 687.446 55.4253 688.074C56.4543 688.702 57.0016 689.024 57.8029 689.45C58.6042 689.876 59.9136 690.509 60.912 690.987C61.9105 691.466 62.5323 691.774 63.3184 692.125C64.1044 692.477 65.6549 692.998 66.8112 693.413C67.9674 693.829 68.344 694 69.1237 694.244C70.4706 694.605 71.7846 694.957 73.1316 695.318C73.7886 695.494 74.4456 695.67 75.1026 695.846C77.1274 696.264 79.1744 696.566 81.2337 696.75C86.3161 697.253 91.4448 697.014 96.4584 696.04C101.215 695.14 105.81 693.535 110.093 691.279L852.784 302.835C843.893 307.436 833.849 309.335 823.892 308.297C821.833 308.097 819.767 307.79 817.761 307.393C817.104 307.217 816.447 307.041 815.79 306.865C814.476 306.513 813.129 306.152 811.815 305.8C811.026 305.589 810.238 305.378 809.511 304.936C808.784 304.495 807.157 304.13 805.985 303.64C804.814 303.15 804.422 302.904 803.603 302.543C802.784 302.183 801.442 301.542 800.494 301.006C799.546 300.471 798.918 300.056 798.125 299.597C797.333 299.138 796.116 298.425 795.095 297.764C794.075 297.103 793.554 296.682 792.788 296.125C792.022 295.567 790.921 294.814 789.993 294.073C789.065 293.331 788.52 292.868 787.813 292.221C787.106 291.574 786.032 290.723 785.187 289.933C784.342 289.143 783.791 288.573 783.102 287.86C782.412 287.147 781.633 286.375 780.929 285.588C779.012 283.437 777.205 281.19 775.515 278.856C775.079 278.246 774.71 277.654 774.308 277.053C773.284 275.617 772.311 274.124 771.377 272.747C770.863 271.905 770.415 271.081 769.943 270.215C769.471 269.349 768.671 267.867 768.105 266.694C767.539 265.522 767.204 264.798 766.759 263.834C766.313 262.869 765.806 261.607 765.371 260.469C764.937 259.332 764.605 258.468 764.251 257.423L763.195 254.006L762.307 250.881L761.446 247.129C761.248 246.161 761.058 245.159 760.911 244.134C760.635 242.405 760.477 240.496 760.282 238.86C760.215 237.926 760.074 237.008 760.048 236.051C759.901 232.988 759.947 229.919 760.187 226.863C760.447 223.756 760.921 220.671 761.604 217.63C761.862 216.537 762.165 215.668 762.412 214.748Z" fill="url(#paint0_linear_228_805)"/>
<path d="M750.257 241.15C748.544 204.178 774.389 176.843 807.979 179.999C841.569 183.154 870.269 215.597 871.899 252.617C873.528 289.637 847.723 316.56 814.214 313.496C780.705 310.433 751.99 277.916 750.257 241.15Z" fill="url(#paint1_linear_228_805)"/>
</g>
<defs>
<linearGradient id="paint0_linear_228_805" x1="288.454" y1="791.021" x2="593.935" y2="94.7858" gradientUnits="userSpaceOnUse">
<stop stop-color="#E8B3DD"/>
<stop offset="0.99" stop-color="#813EE0"/>
</linearGradient>
<linearGradient id="paint1_linear_228_805" x1="837.028" y1="311.452" x2="786.862" y2="182.849" gradientUnits="userSpaceOnUse">
<stop stop-color="#E8B4DE"/>
<stop offset="0.99" stop-color="#803DE0"/>
</linearGradient>
<clipPath id="clip0_228_805">
<rect width="696.398" height="744.285" fill="white" transform="translate(899.165 192.635) rotate(105)"/>
</clipPath>
</defs>
</svg>
