<svg width="313" height="320" viewBox="0 0 313 320" fill="none" xmlns="http://www.w3.org/2000/svg">
<path d="M158.82 241.634L139.745 254.089L179.889 122.717L198.975 110.281L158.82 241.634Z" fill="url(#paint0_linear_225_674)"/>
<path d="M198.975 110.281L179.889 122.717L46.8936 137.816L65.9975 125.368L198.975 110.281Z" fill="url(#paint1_linear_225_674)"/>
<path d="M169.722 292.868L150.636 305.305L0.159248 116.871L19.2451 104.434L169.722 292.868Z" fill="url(#paint2_linear_225_674)"/>
<path d="M19.2451 104.434L234.814 79.9627L169.722 292.868L19.2451 104.434ZM65.9794 125.379L158.82 241.634L198.975 110.281L65.9794 125.379Z" fill="url(#paint3_linear_225_674)"/>
<defs>
<linearGradient id="paint0_linear_225_674" x1="115.722" y1="216.147" x2="222.998" y2="148.223" gradientUnits="userSpaceOnUse">
<stop stop-color="#813EE0"/>
<stop offset="0.99" stop-color="#E7B3DD"/>
</linearGradient>
<linearGradient id="paint1_linear_225_674" x1="62.4317" y1="162.357" x2="183.437" y2="85.7403" gradientUnits="userSpaceOnUse">
<stop stop-color="#E7B3DE"/>
<stop offset="0.99" stop-color="#E9B5DE"/>
</linearGradient>
<linearGradient id="paint2_linear_225_674" x1="149.135" y1="306.256" x2="20.7463" y2="103.484" gradientUnits="userSpaceOnUse">
<stop offset="0.01" stop-color="#E6B2DD"/>
<stop offset="1" stop-color="#7F3CE0"/>
</linearGradient>
<linearGradient id="paint3_linear_225_674" x1="10.2234" y1="143.971" x2="209.805" y2="189.497" gradientUnits="userSpaceOnUse">
<stop stop-color="#813EE0"/>
<stop offset="0.99" stop-color="#E6B2DF"/>
</linearGradient>
</defs>
</svg>
